SUBTITLES:

Greek
English
Espanol
Portugese
Nederlands
Arabic
Bulgarian
Hrvatski
Dansk
Suomi
Hebrew
Hindi
Islenska
Norsk
Romanian
Serbian
Slovenian
Svenska
Turkish

Movie Trailer, Sample, Snapsots, English and Greek Info.txt Included

--------------------------------------------------------------------

Closer (2004/I) DvDrip Xvid
 
http://www.imdb.com/title/tt0376541/

Plot: Set in contemporary London, a story of passion, drama, love, and abandonment involving four strangers--their chance meetings, instant attractions and casual betrayals. 

Starring: Jude Law, Natalie Portman, Clive Owen, Julia Roberts, Nick Hobbs

-----------------------------------------------------------------------

General

Format                           : AVI
Format/Info                      : Audio Video Interleave
File size                        : 1.37 GiB
Duration                         : 1h 39mn
Overall bit rate                 : 1 965 Kbps
Writing application              : VirtualDubMod 1.5.4.1 (build 2178/release)
Writing library                  : VirtualDubMod build 2178/release

Video
ID                               : 0
Format                           : MPEG-4 Visual
Format profile                   : AdvancedSimple@L5
Format settings, BVOP            : Yes
Format settings, QPel            : No
Format settings, GMC             : No warppoints
Format settings, Matrix          : Custom
Codec ID                         : XVID
Codec ID/Hint                    : XviD
Duration                         : 1h 39mn
Bit rate                         : 1 510 Kbps
Width                            : 848 pixels
Height                           : 464 pixels
Display aspect ratio             : 16:9
Frame rate                       : 25.000 fps
Resolution                       : 24 bits
Colorimetry                      : 4:2:0
Scan type                        : Progressive
Bits/(Pixel*Frame)               : 0.154
Stream size                      : 1.05 GiB (77%)
Writing library                  : XviD 1.2.1 (UTC 2008-12-04)

Audio
ID                               : 1
Format                           : AC-3
Format/Info                      : Audio Coding 3
Codec ID                         : 2000
Duration                         : 1h 39mn
Bit rate mode                    : Constant
Bit rate                         : 448 Kbps
Channel(s)                       : 6 channels
Channel positions                : Front: L C R, Surround: L R, LFE
Sampling rate                    : 48.0 KHz
Stream size                      : 319 MiB (23%)
Alignment                        : Split accross interleaves
Interleave, duration             : 96 ms (2.40 video frames)
Interleave, preload duration     : 96 ms
Language                         : English


!